# xmcd CD database file
#
# Track frame offsets:
#	150
#	17925
#	46362
#	67719
#	98652
#	119366
#	141352
#	169376
#	222770
#	248828
#
# Disc length: 3580 seconds
#
# Revision: 0
# Processed by: cddbd v1.4PL0 Copyright (c) Steve Scherf et al.
# Submitted via: CDex 1.50beta10
#
DISCID=8a0dfa0a
DTITLE=The Manhattan Saxophone Ensemble - The Dogwalk
DYEAR=2003
DGENRE=Jazz
TTITLE0=The Dogwalk (in)
TTITLE1=I Hear A Rhapsody
TTITLE2=Get Happy
TTITLE3=Eternal Triangle
TTITLE4=Naima
TTITLE5=The Farewell
TTITLE6=a la Monk
TTITLE7=Your Gentle Heart
TTITLE8=Untitled Original
TTITLE9=The Dogwalk (out)
EXTD=YEAR: 2003
EXTT0=
EXTT1=
EXTT2=
EXTT3=
EXTT4=
EXTT5=
EXTT6=
EXTT7=
EXTT8=
EXTT9=
PLAYORDER=
